<svg width="8" height="3" viewBox="0 0 8 3" fill="none" xmlns="http://www.w3.org/2000/svg">
<path d="M4.93333 1.11C4.93333 1.72358 4.43692 2.22 3.82333 2.22C3.20975 2.22 2.71333 1.72358 2.71333 1.11C2.71333 0.496417 3.20975 0 3.82333 0C4.43692 0 4.93333 0.496417 4.93333 1.11ZM6.53667 0C5.92308 0 5.42667 0.496417 5.42667 1.11C5.42667 1.72358 5.92308 2.22 6.53667 2.22C7.15025 2.22 7.64667 1.72358 7.64667 1.11C7.64667 0.496417 7.15025 0 6.53667 0ZM1.11 0C0.496417 0 0 0.496417 0 1.11C0 1.72358 0.496417 2.22 1.11 2.22C1.72358 2.22 2.22 1.72358 2.22 1.11C2.22 0.496417 1.72358 0 1.11 0Z" fill="#212529"/>
</svg>
